<svg xmlns="http://www.w3.org/2000/svg" width="256" height="256" viewBox="0 0 100 100"><rect width="100" height="100" rx="50" fill="#4d7123"></rect><path fill="#fbfaf2" d="M45.14 63.73L64.40 63.73Q66.56 63.73 68 65.12Q69.44 66.52 69.44 68.67L69.44 68.67Q69.44 70.75 68 72.19Q66.56 73.63 64.40 73.63L64.40 73.63L35.42 73.63Q33.17 73.63 31.82 72.00Q30.47 70.39 30.56 68.77L30.56 68.77Q30.65 67.42 30.92 66.38Q31.19 65.34 32.27 64.00L32.27 64.00L54.68 35.02L54.50 36.27L36.23 36.27Q34.07 36.27 32.63 34.84Q31.19 33.40 31.19 31.23L31.19 31.23Q31.19 29.16 32.63 27.77Q34.07 26.38 36.23 26.38L36.23 26.38L63.95 26.38Q66.02 26.38 67.46 27.91Q68.90 29.44 68.72 31.77L68.72 31.77Q68.63 32.68 68.41 33.58Q68.18 34.48 67.19 35.73L67.19 35.73L45.14 64.27L45.14 63.73Z"></path></svg>